<svg width="1200" height="630" viewBox="0 0 1200 630" fill="none" xmlns="http://www.w3.org/2000/svg">
<rect width="1200" height="630" fill="#1C0020"/>
<path d="M275.483 282.207L275.458 282.231L275.409 282.268L275.287 282.366C274.755 282.769 274.24 283.194 273.743 283.64C272.461 284.776 271.226 285.965 270.044 287.205C267.104 290.304 263.331 294.91 259.79 301.072C252.661 313.506 246.671 332.04 250.039 356.821C253.359 381.285 263.637 401.73 281.007 415.989C298.329 430.199 321.775 437.5 350.134 437.5C379.375 437.5 402.723 426.536 418.171 407.732C433.483 389.1 440.319 363.682 438.689 335.898C437.121 309.243 422.605 289.018 409.779 271.157L406.117 266.049C392.127 246.302 381.09 228.111 383.773 202.655C383.908 201.374 383.773 200.079 383.376 198.853C382.978 197.628 382.328 196.5 381.466 195.542C380.604 194.584 379.55 193.818 378.373 193.294C377.197 192.77 375.923 192.5 374.634 192.5C369.955 192.5 364.589 193.946 359.42 196.126C353.434 198.692 347.785 201.984 342.6 205.926C331.269 214.476 319.938 227.363 313.899 244.587C307.872 261.761 310.934 278.128 315.344 290.047C318.247 297.875 315.099 305.604 310.358 307.858C308.341 308.813 306.033 308.95 303.917 308.242C301.801 307.535 300.04 306.036 299.003 304.061L289.129 285.306C288.511 284.129 287.645 283.101 286.591 282.291C285.537 281.482 284.32 280.911 283.024 280.617C281.728 280.324 280.384 280.315 279.084 280.592C277.784 280.868 276.559 281.423 275.495 282.219" fill="#E23215"/>
<path d="M509.773 412.5V268.372H564.301C568.909 268.372 573.773 268.628 578.893 269.14C584.013 269.481 588.962 270.335 593.741 271.7C598.69 273.065 603.127 275.199 607.053 278.1C610.978 280.831 614.05 284.5 616.269 289.108C618.658 293.716 619.853 299.519 619.853 306.516C619.853 311.977 618.743 317.097 616.525 321.876C614.477 326.484 610.637 330.239 605.005 333.14C599.543 336.041 591.522 337.663 580.941 338.004V339.028C593.058 339.199 602.359 340.905 608.845 344.148C615.501 347.391 620.109 351.657 622.669 356.948C625.229 362.068 626.509 367.785 626.509 374.1C626.509 381.268 625.229 387.241 622.669 392.02C620.109 396.628 616.695 400.297 612.429 403.028C608.162 405.759 603.383 407.807 598.093 409.172C592.802 410.537 587.341 411.476 581.709 411.988C576.247 412.329 571.127 412.5 566.349 412.5H509.773ZM530.765 395.092H564.557C571.895 395.092 578.551 394.665 584.525 393.812C590.498 392.788 595.277 390.569 598.861 387.156C602.615 383.743 604.493 378.537 604.493 371.54C604.493 364.031 602.53 358.569 598.605 355.156C594.85 351.572 589.815 349.268 583.501 348.244C577.186 347.049 570.189 346.452 562.509 346.452H530.765V395.092ZM530.765 329.812H561.741C568.738 329.812 574.967 329.385 580.429 328.532C586.061 327.679 590.498 325.801 593.741 322.9C596.983 319.828 598.605 315.049 598.605 308.564C598.605 301.396 596.898 296.276 593.485 293.204C590.071 289.961 585.549 287.999 579.917 287.316C574.455 286.463 568.482 286.036 561.997 286.036H530.765V329.812ZM682.785 415.06C675.787 415.06 669.899 413.951 665.121 411.732C660.513 409.513 656.758 406.527 653.857 402.772C651.126 399.017 649.078 394.836 647.713 390.228C646.347 385.62 645.409 380.841 644.897 375.892C644.385 370.943 644.129 366.164 644.129 361.556V307.796H665.121V361.556C665.121 367.7 665.718 373.417 666.913 378.708C668.107 383.828 670.582 388.009 674.337 391.252C678.091 394.495 683.638 396.116 690.977 396.116C698.145 396.116 703.691 394.495 707.617 391.252C711.542 387.839 714.273 383.572 715.809 378.452C717.515 373.332 718.454 368.041 718.625 362.58V307.796H740.641V412.5H722.465L718.881 390.74H718.369C717.857 392.447 716.833 394.665 715.297 397.396C713.761 399.956 711.627 402.601 708.897 405.332C706.166 408.063 702.582 410.367 698.145 412.244C693.878 414.121 688.758 415.06 682.785 415.06ZM762.945 412.5V307.796H782.657L784.449 338.004L784.193 360.532V412.5H762.945ZM784.193 365.396L783.425 342.356C783.595 338.601 784.449 334.761 785.985 330.836C787.521 326.74 789.825 322.985 792.897 319.572C796.139 315.988 800.235 313.172 805.185 311.124C810.305 308.905 816.449 307.796 823.617 307.796H827.969V331.348H823.361C815.681 331.348 809.281 332.116 804.161 333.652C799.041 335.017 795.03 337.151 792.129 340.052C789.227 342.953 787.179 346.537 785.985 350.804C784.79 355.071 784.193 359.935 784.193 365.396ZM843.153 412.5V307.796H861.329L864.913 332.116H865.425C865.595 331.433 866.278 329.812 867.473 327.252C868.667 324.692 870.63 321.961 873.361 319.06C876.091 315.988 879.761 313.343 884.369 311.124C888.977 308.905 894.779 307.796 901.777 307.796C909.115 307.796 915.089 308.991 919.697 311.38C924.475 313.599 928.23 316.671 930.961 320.596C933.862 324.351 935.91 328.617 937.105 333.396C938.299 338.004 939.067 342.783 939.409 347.732C939.75 352.511 939.921 357.033 939.921 361.3V412.5H919.185V361.044C919.185 354.559 918.502 348.756 917.137 343.636C915.771 338.345 913.297 334.249 909.713 331.348C906.129 328.276 900.753 326.74 893.585 326.74C886.417 326.74 880.699 328.447 876.433 331.86C872.337 335.273 869.35 339.711 867.473 345.172C865.766 350.463 864.913 356.265 864.913 362.58V412.5H843.153Z" fill="#E23215"/>
</svg>
