<svg width="3400" height="1080" viewBox="0 0 3400 1080" fill="none" xmlns="http://www.w3.org/2000/svg">
<path d="M2240 0H1160V1080H2240V0Z" fill="#0000FF"/>
<path fill-rule="evenodd" clip-rule="evenodd" d="M1713.68 539.315L1692.42 675.63H1734.95L1713.68 539.315Z" fill="#FFDFED"/>
<path fill-rule="evenodd" clip-rule="evenodd" d="M1713.68 539.315L1577.37 518.05V560.58L1713.68 539.315Z" fill="#FFDFED"/>
<path fill-rule="evenodd" clip-rule="evenodd" d="M1713.69 539.315L1663.94 410.63L1627.11 431.895L1713.69 539.315Z" fill="#FFDFED"/>
<path fill-rule="evenodd" clip-rule="evenodd" d="M1713.69 539.316L1842.37 489.574L1821.11 452.742L1713.69 539.316Z" fill="#FFDFED"/>
<path fill-rule="evenodd" clip-rule="evenodd" d="M1713.69 539.315L1606.27 452.741L1585 489.574L1713.69 539.315Z" fill="#FFDFED"/>
<path fill-rule="evenodd" clip-rule="evenodd" d="M1713.69 539.316L1800.26 431.896L1763.43 410.631L1713.69 539.316Z" fill="#FFDFED"/>
<path fill-rule="evenodd" clip-rule="evenodd" d="M1713.69 539.315L1734.95 403H1692.42L1713.69 539.315Z" fill="#FFDFED"/>
<path fill-rule="evenodd" clip-rule="evenodd" d="M1713.69 539.316L1850 560.58V518.05L1713.69 539.316Z" fill="#FFDFED"/>
<path fill-rule="evenodd" clip-rule="evenodd" d="M1713.68 539.315L1763.43 668L1800.26 646.735L1713.68 539.315Z" fill="#FFDFED"/>
<path fill-rule="evenodd" clip-rule="evenodd" d="M1713.68 539.315L1585 589.056L1606.27 625.889L1713.68 539.315Z" fill="#FFDFED"/>
<path fill-rule="evenodd" clip-rule="evenodd" d="M1713.68 539.315L1767.39 582.602L1821.1 625.889L1842.37 589.057L1713.68 539.315Z" fill="#FFDFED"/>
<path fill-rule="evenodd" clip-rule="evenodd" d="M1713.68 539.315L1627.11 646.735L1663.94 668L1713.68 539.315Z" fill="#FFDFED"/>
<path fill-rule="evenodd" clip-rule="evenodd" d="M1713.61 441.168L1802.4 594.972H1624.81L1713.61 441.168Z" fill="#0000FF"/>
<path d="M1713.61 559.279C1722.23 559.279 1730.23 557.148 1736.86 553.495C1743.05 550.083 1748.04 545.359 1751.2 539.83C1748.04 534.301 1743.05 529.577 1736.86 526.164C1730.23 522.512 1722.23 520.381 1713.61 520.381C1704.98 520.381 1696.98 522.512 1690.36 526.164C1684.16 529.577 1679.18 534.301 1676.01 539.83C1679.18 545.359 1684.16 550.083 1690.36 553.495C1696.98 557.148 1704.98 559.279 1713.61 559.279ZM1740.08 559.366C1732.49 563.548 1723.38 565.988 1713.61 565.988C1703.83 565.988 1694.72 563.548 1687.13 559.366C1679.22 555.006 1672.94 548.734 1669.24 541.324L1668.49 539.83L1669.24 538.336C1672.94 530.927 1679.22 524.653 1687.13 520.294C1694.72 516.112 1703.83 513.672 1713.61 513.672C1723.38 513.672 1732.49 516.112 1740.08 520.294C1747.99 524.653 1754.27 530.927 1757.97 538.336L1758.72 539.83L1757.97 541.324C1754.27 548.734 1747.99 555.006 1740.08 559.366Z" fill="#FFDFED"/>
<path fill-rule="evenodd" clip-rule="evenodd" d="M1713.61 524.818C1721.9 524.818 1728.62 531.539 1728.62 539.83C1728.62 548.121 1721.9 554.842 1713.61 554.842C1705.31 554.842 1698.59 548.121 1698.59 539.83C1698.59 531.539 1705.31 524.818 1713.61 524.818Z" fill="#FFDFED"/>
<path fill-rule="evenodd" clip-rule="evenodd" d="M1720.66 526.669C1723.6 526.669 1725.98 529.053 1725.98 531.994C1725.98 534.935 1723.6 537.319 1720.66 537.319C1717.71 537.319 1715.33 534.935 1715.33 531.994C1715.33 529.053 1717.71 526.669 1720.66 526.669Z" fill="#0000FF"/>
<path fill-rule="evenodd" clip-rule="evenodd" d="M1713.61 421.539L1819.4 604.787H1607.81L1713.61 421.539ZM1802.4 594.972L1713.61 441.168L1624.81 594.972H1802.4Z" fill="#FFDFED"/>
<path d="M1497.52 675.057V561.316H1391V675.057H1325V403H1391V505.982H1497.52V403H1563.52V675.057H1497.52Z" fill="#FFDFED"/>
<path d="M2075 487.345C2075 503.228 2072.04 516.678 2066.12 527.693C2060.2 538.452 2052.23 547.162 2042.19 553.823C2032.16 560.483 2020.58 565.351 2007.46 568.425C1994.34 571.499 1980.7 573.036 1966.55 573.036H1933.74V675.634H1867.74V403.576H1968.09C1983.01 403.576 1996.91 405.113 2009.77 408.188C2022.9 411.005 2034.22 415.745 2043.74 422.405C2053.51 428.81 2061.11 437.391 2066.51 448.151C2072.17 458.654 2075 471.719 2075 487.345ZM2009 487.73C2009 481.325 2007.72 476.074 2005.14 471.975C2002.57 467.876 1999.09 464.674 1994.72 462.368C1990.35 460.063 1985.33 458.526 1979.67 457.757C1974.27 456.989 1968.6 456.605 1962.69 456.605H1933.74V520.776H1961.53C1967.71 520.776 1973.62 520.264 1979.28 519.239C1984.94 518.215 1989.96 516.421 1994.34 513.86C1998.97 511.298 2002.57 507.967 2005.14 503.869C2007.72 499.514 2009 494.134 2009 487.73Z" fill="#FFDFED"/>
<path d="M3400 0H2320V1080H3400V0Z" fill="#3F414D"/>
<path fill-rule="evenodd" clip-rule="evenodd" d="M2873.68 539.315L2852.42 675.63H2894.95L2873.68 539.315Z" fill="white"/>
<path fill-rule="evenodd" clip-rule="evenodd" d="M2873.68 539.315L2737.37 518.05V560.58L2873.68 539.315Z" fill="white"/>
<path fill-rule="evenodd" clip-rule="evenodd" d="M2873.69 539.315L2823.94 410.63L2787.11 431.895L2873.69 539.315Z" fill="white"/>
<path fill-rule="evenodd" clip-rule="evenodd" d="M2873.69 539.316L3002.37 489.574L2981.11 452.742L2873.69 539.316Z" fill="white"/>
<path fill-rule="evenodd" clip-rule="evenodd" d="M2873.69 539.315L2766.27 452.741L2745 489.574L2873.69 539.315Z" fill="white"/>
<path fill-rule="evenodd" clip-rule="evenodd" d="M2873.69 539.316L2960.26 431.896L2923.43 410.631L2873.69 539.316Z" fill="white"/>
<path fill-rule="evenodd" clip-rule="evenodd" d="M2873.69 539.315L2894.95 403H2852.42L2873.69 539.315Z" fill="white"/>
<path fill-rule="evenodd" clip-rule="evenodd" d="M2873.69 539.316L3010 560.58V518.05L2873.69 539.316Z" fill="white"/>
<path fill-rule="evenodd" clip-rule="evenodd" d="M2873.68 539.315L2923.43 668L2960.26 646.735L2873.68 539.315Z" fill="white"/>
<path fill-rule="evenodd" clip-rule="evenodd" d="M2873.68 539.315L2745 589.056L2766.27 625.889L2873.68 539.315Z" fill="white"/>
<path fill-rule="evenodd" clip-rule="evenodd" d="M2873.68 539.315L2927.39 582.602L2981.1 625.889L3002.37 589.057L2873.68 539.315Z" fill="white"/>
<path fill-rule="evenodd" clip-rule="evenodd" d="M2873.68 539.315L2787.11 646.735L2823.94 668L2873.68 539.315Z" fill="white"/>
<path fill-rule="evenodd" clip-rule="evenodd" d="M2873.61 441.168L2962.4 594.972H2784.81L2873.61 441.168Z" fill="#3F414D"/>
<path d="M2873.61 559.279C2882.23 559.279 2890.23 557.148 2896.86 553.495C2903.05 550.083 2908.04 545.359 2911.2 539.83C2908.04 534.301 2903.05 529.577 2896.86 526.164C2890.23 522.512 2882.23 520.381 2873.61 520.381C2864.98 520.381 2856.98 522.512 2850.36 526.164C2844.16 529.577 2839.18 534.301 2836.01 539.83C2839.18 545.359 2844.16 550.083 2850.36 553.495C2856.98 557.148 2864.98 559.279 2873.61 559.279ZM2900.08 559.366C2892.49 563.548 2883.38 565.988 2873.61 565.988C2863.83 565.988 2854.72 563.548 2847.13 559.366C2839.22 555.006 2832.94 548.734 2829.24 541.324L2828.49 539.83L2829.24 538.336C2832.94 530.927 2839.22 524.653 2847.13 520.294C2854.72 516.112 2863.83 513.672 2873.61 513.672C2883.38 513.672 2892.49 516.112 2900.08 520.294C2907.99 524.653 2914.27 530.927 2917.97 538.336L2918.72 539.83L2917.97 541.324C2914.27 548.734 2907.99 555.006 2900.08 559.366Z" fill="white"/>
<path fill-rule="evenodd" clip-rule="evenodd" d="M2873.61 524.818C2881.9 524.818 2888.62 531.539 2888.62 539.83C2888.62 548.121 2881.9 554.842 2873.61 554.842C2865.31 554.842 2858.59 548.121 2858.59 539.83C2858.59 531.539 2865.31 524.818 2873.61 524.818Z" fill="white"/>
<path fill-rule="evenodd" clip-rule="evenodd" d="M2880.66 526.669C2883.6 526.669 2885.98 529.053 2885.98 531.994C2885.98 534.935 2883.6 537.319 2880.66 537.319C2877.71 537.319 2875.33 534.935 2875.33 531.994C2875.33 529.053 2877.71 526.669 2880.66 526.669Z" fill="#3F414D"/>
<path fill-rule="evenodd" clip-rule="evenodd" d="M2873.61 421.539L2979.4 604.787H2767.81L2873.61 421.539ZM2962.4 594.972L2873.61 441.168L2784.81 594.972H2962.4Z" fill="white"/>
<path d="M2657.52 675.057V561.316H2551V675.057H2485V403H2551V505.982H2657.52V403H2723.52V675.057H2657.52Z" fill="white"/>
<path d="M3235 487.345C3235 503.228 3232.04 516.678 3226.12 527.693C3220.2 538.452 3212.23 547.162 3202.19 553.823C3192.16 560.483 3180.58 565.351 3167.46 568.425C3154.34 571.499 3140.7 573.036 3126.55 573.036H3093.74V675.634H3027.74V403.576H3128.09C3143.01 403.576 3156.91 405.113 3169.77 408.188C3182.9 411.005 3194.22 415.745 3203.74 422.405C3213.51 428.81 3221.11 437.391 3226.51 448.151C3232.17 458.654 3235 471.719 3235 487.345ZM3169 487.73C3169 481.325 3167.72 476.074 3165.14 471.975C3162.57 467.876 3159.09 464.674 3154.72 462.368C3150.35 460.063 3145.33 458.526 3139.67 457.757C3134.27 456.989 3128.6 456.605 3122.69 456.605H3093.74V520.776H3121.53C3127.71 520.776 3133.62 520.264 3139.28 519.239C3144.94 518.215 3149.96 516.421 3154.34 513.86C3158.97 511.298 3162.57 507.967 3165.14 503.869C3167.72 499.514 3169 494.134 3169 487.73Z" fill="white"/>
<path d="M1080 0H0V1080H1080V0Z" fill="#009E5B"/>
<path fill-rule="evenodd" clip-rule="evenodd" d="M553.68 539.315L532.42 675.63H574.95L553.68 539.315Z" fill="#E8FFFC"/>
<path fill-rule="evenodd" clip-rule="evenodd" d="M553.68 539.315L417.37 518.05V560.58L553.68 539.315Z" fill="#E8FFFC"/>
<path fill-rule="evenodd" clip-rule="evenodd" d="M553.69 539.315L503.94 410.63L467.11 431.895L553.69 539.315Z" fill="#E8FFFC"/>
<path fill-rule="evenodd" clip-rule="evenodd" d="M553.69 539.316L682.37 489.574L661.11 452.742L553.69 539.316Z" fill="#E8FFFC"/>
<path fill-rule="evenodd" clip-rule="evenodd" d="M553.69 539.315L446.27 452.741L425 489.574L553.69 539.315Z" fill="#E8FFFC"/>
<path fill-rule="evenodd" clip-rule="evenodd" d="M553.69 539.316L640.26 431.896L603.43 410.631L553.69 539.316Z" fill="#E8FFFC"/>
<path fill-rule="evenodd" clip-rule="evenodd" d="M553.69 539.315L574.95 403H532.42L553.69 539.315Z" fill="#E8FFFC"/>
<path fill-rule="evenodd" clip-rule="evenodd" d="M553.69 539.316L690 560.58V518.05L553.69 539.316Z" fill="#E8FFFC"/>
<path fill-rule="evenodd" clip-rule="evenodd" d="M553.68 539.315L603.43 668L640.26 646.735L553.68 539.315Z" fill="#E8FFFC"/>
<path fill-rule="evenodd" clip-rule="evenodd" d="M553.68 539.315L425 589.056L446.27 625.889L553.68 539.315Z" fill="#E8FFFC"/>
<path fill-rule="evenodd" clip-rule="evenodd" d="M553.68 539.315L607.39 582.602L661.1 625.889L682.37 589.057L553.68 539.315Z" fill="#E8FFFC"/>
<path fill-rule="evenodd" clip-rule="evenodd" d="M553.68 539.315L467.11 646.735L503.94 668L553.68 539.315Z" fill="#E8FFFC"/>
<path fill-rule="evenodd" clip-rule="evenodd" d="M553.61 441.168L642.4 594.972H464.81L553.61 441.168Z" fill="#009E5B"/>
<path d="M553.61 559.279C562.23 559.279 570.23 557.148 576.86 553.495C583.05 550.083 588.04 545.359 591.2 539.83C588.04 534.301 583.05 529.577 576.86 526.164C570.23 522.512 562.23 520.381 553.61 520.381C544.98 520.381 536.98 522.512 530.36 526.164C524.16 529.577 519.18 534.301 516.01 539.83C519.18 545.359 524.16 550.083 530.36 553.495C536.98 557.148 544.98 559.279 553.61 559.279ZM580.08 559.366C572.49 563.548 563.38 565.988 553.61 565.988C543.83 565.988 534.72 563.548 527.13 559.366C519.22 555.006 512.94 548.734 509.24 541.324L508.49 539.83L509.24 538.336C512.94 530.927 519.22 524.653 527.13 520.294C534.72 516.112 543.83 513.672 553.61 513.672C563.38 513.672 572.49 516.112 580.08 520.294C587.99 524.653 594.27 530.927 597.97 538.336L598.72 539.83L597.97 541.324C594.27 548.734 587.99 555.006 580.08 559.366Z" fill="#E8FFFC"/>
<path fill-rule="evenodd" clip-rule="evenodd" d="M553.61 524.818C561.9 524.818 568.62 531.539 568.62 539.83C568.62 548.121 561.9 554.842 553.61 554.842C545.31 554.842 538.59 548.121 538.59 539.83C538.59 531.539 545.31 524.818 553.61 524.818Z" fill="#E8FFFC"/>
<path fill-rule="evenodd" clip-rule="evenodd" d="M560.66 526.669C563.6 526.669 565.98 529.053 565.98 531.994C565.98 534.935 563.6 537.319 560.66 537.319C557.71 537.319 555.33 534.935 555.33 531.994C555.33 529.053 557.71 526.669 560.66 526.669Z" fill="#009E5B"/>
<path fill-rule="evenodd" clip-rule="evenodd" d="M553.61 421.539L659.4 604.787H447.81L553.61 421.539ZM642.4 594.972L553.61 441.168L464.81 594.972H642.4Z" fill="#E8FFFC"/>
<path d="M337.52 675.057V561.316H231V675.057H165V403H231V505.982H337.52V403H403.52V675.057H337.52Z" fill="#E8FFFC"/>
<path d="M915 487.345C915 503.228 912.04 516.678 906.12 527.693C900.2 538.452 892.23 547.162 882.19 553.823C872.16 560.483 860.58 565.351 847.46 568.425C834.34 571.499 820.7 573.036 806.55 573.036H773.74V675.634H707.74V403.576H808.09C823.01 403.576 836.91 405.113 849.77 408.188C862.9 411.005 874.22 415.745 883.74 422.405C893.51 428.81 901.11 437.391 906.51 448.151C912.17 458.654 915 471.719 915 487.345ZM849 487.73C849 481.325 847.72 476.074 845.14 471.975C842.57 467.876 839.09 464.674 834.72 462.368C830.35 460.063 825.33 458.526 819.67 457.757C814.27 456.989 808.6 456.605 802.69 456.605H773.74V520.776H801.53C807.71 520.776 813.62 520.264 819.28 519.239C824.94 518.215 829.96 516.421 834.34 513.86C838.97 511.298 842.57 507.967 845.14 503.869C847.72 499.514 849 494.134 849 487.73Z" fill="#E8FFFC"/>
</svg>
