<svg width="1200" height="630" viewBox="0 0 1200 630" fill="none" xmlns="http://www.w3.org/2000/svg">
<rect width="1200" height="630" fill="#DBF5FF"/>
<mask id="mask0_20_22" style="mask-type:luminance" maskUnits="userSpaceOnUse" x="138" y="55" width="924" height="520">
<path d="M1061.23 55H138.77V575H1061.23V55Z" fill="white"/>
</mask>
<g mask="url(#mask0_20_22)">
<path d="M554.077 55H234.61C181.679 55 138.77 98.6524 138.77 152.5V477.5C138.77 531.348 181.679 575 234.61 575H554.077C607.008 575 649.917 531.348 649.917 477.5V152.5C649.917 98.6524 607.008 55 554.077 55Z" fill="#CB1B45"/>
<path d="M488.949 226.28C483.886 204.093 471.57 184.312 454.016 170.171C436.465 156.031 414.717 148.368 392.327 148.438C369.938 148.507 348.235 156.305 330.769 170.554C313.302 184.803 301.105 204.661 296.175 226.878C272.964 233.139 252.785 247.779 239.405 268.064C226.025 288.349 220.357 312.894 223.459 337.118C226.561 361.343 238.222 383.591 256.265 399.711C274.307 415.831 297.499 424.724 321.512 424.724C327.249 424.72 332.975 424.2 338.621 423.168C353.86 432.179 371.192 436.871 388.817 436.761V474.652C388.817 476.103 389.382 477.488 390.388 478.512C391.393 479.535 392.758 480.108 394.18 480.108C395.602 480.108 396.966 479.535 397.971 478.512C398.977 477.488 399.542 476.103 399.542 474.652V436.611C416.842 436.249 433.801 431.655 448.984 423.213C463.184 425.748 477.764 425.086 491.685 421.275C505.61 417.46 518.544 410.591 529.578 401.145C540.607 391.699 549.472 379.908 555.542 366.602C561.612 353.296 564.743 338.799 564.711 324.129C564.659 301.549 557.168 279.638 543.434 261.899C529.697 244.161 510.513 231.619 488.949 226.28ZM391.408 425.923C356.046 425.923 329.99 410.688 318.036 383.031C307.451 358.536 314.796 327.142 318.029 315.921C331.514 318.741 344.304 324.288 355.642 332.234C356.276 332.678 356.996 332.978 357.755 333.113C358.513 333.249 359.291 333.216 360.036 333.018C360.781 332.821 361.476 332.462 362.072 331.967C362.669 331.471 363.153 330.852 363.493 330.149C370.11 316.827 379.125 304.886 390.07 294.946C402.626 305.505 412.82 318.663 419.989 333.544C420.34 334.271 420.843 334.91 421.47 335.414C422.093 335.917 422.816 336.273 423.594 336.456C424.369 336.639 425.176 336.643 425.955 336.469C426.733 336.296 427.46 335.948 428.091 335.451C440.406 325.835 454.691 319.168 469.889 315.946C472.82 327.262 479.274 358.249 469.909 383.287C465.121 396.106 447.878 425.923 391.408 425.923ZM465.832 413.816C464.502 413.816 463.168 413.776 461.839 413.715C469.841 406.435 476.043 397.339 479.94 387.165C492.931 352.419 479.421 309.926 478.842 308.134C478.455 306.945 477.68 305.928 476.642 305.252C475.608 304.577 474.374 304.284 473.148 304.423C456.452 306.87 440.538 313.235 426.673 323.014C418.391 307.508 406.874 294.031 392.938 283.526C392.009 282.867 390.898 282.523 389.766 282.545C388.633 282.567 387.536 282.953 386.633 283.648C374.486 293.704 364.321 306.008 356.672 319.91C343.971 311.826 329.741 306.549 314.905 304.421C313.709 304.281 312.502 304.556 311.478 305.201C310.455 305.846 309.676 306.824 309.267 307.976C308.611 309.805 293.413 353.161 308.22 387.419C312.437 397.331 318.599 406.264 326.327 413.67C324.73 413.759 323.126 413.812 321.514 413.812C299.84 413.812 278.925 405.687 262.766 390.991C246.606 376.296 236.334 356.06 233.911 334.149C231.488 312.237 237.084 290.185 249.63 272.205C262.176 254.225 280.793 241.576 301.925 236.675C302.946 236.44 303.876 235.907 304.602 235.141C305.329 234.375 305.819 233.41 306.013 232.364C309.821 211.876 320.528 193.378 336.292 180.052C352.056 166.725 371.892 159.404 392.389 159.347C412.884 159.29 432.759 166.5 448.597 179.738C464.43 192.976 475.24 211.414 479.158 231.881C479.357 232.942 479.865 233.918 480.611 234.686C481.362 235.453 482.316 235.978 483.355 236.192C504.779 240.615 523.823 252.975 536.798 270.876C549.768 288.776 555.742 310.939 553.558 333.067C551.373 355.194 541.19 375.708 524.981 390.628C508.772 405.549 487.692 413.812 465.832 413.816Z" fill="#DBF5FF" stroke="#DBF5FF" stroke-width="2"/>
<path d="M722.5 402.344C719.944 402.344 718.666 401.389 718.666 399.484C718.666 397.924 719.772 396.884 721.988 396.364L727.867 395.324C731.445 394.63 733.745 393.677 734.767 392.464C735.961 391.25 736.556 388.824 736.556 385.184V232.304C736.556 228.664 735.961 226.237 734.767 225.024C733.745 223.81 731.445 222.857 727.867 222.164L721.988 221.124C719.772 220.604 718.666 219.564 718.666 218.004C718.666 216.097 719.944 215.144 722.5 215.144H768.758C771.314 215.144 772.592 216.097 772.592 218.004C772.592 219.564 771.486 220.604 769.27 221.124L763.391 222.164C759.813 222.857 757.429 223.81 756.235 225.024C755.213 226.237 754.702 228.664 754.702 232.304V385.184C754.702 388.824 755.213 391.25 756.235 392.464C757.429 393.677 759.813 394.63 763.391 395.324L769.27 396.364C771.486 396.884 772.592 397.924 772.592 399.484C772.592 401.389 771.314 402.344 768.758 402.344H722.5ZM785.123 402.344C782.567 402.344 781.289 401.389 781.289 399.484C781.289 397.924 782.396 396.884 784.612 396.364L787.679 395.844C791.257 395.15 793.557 394.11 794.579 392.724C795.769 391.164 796.368 388.564 796.368 384.924V297.564C796.368 294.444 795.857 292.364 794.835 291.324C793.98 290.11 792.363 289.33 789.979 288.984L784.612 288.204C782.396 288.03 781.289 287.077 781.289 285.344C781.289 283.957 782.651 283.004 785.379 282.484C790.658 281.617 794.663 280.23 797.391 278.324C800.286 276.417 803.269 274.077 806.336 271.304C807.869 269.744 809.147 268.964 810.169 268.964C811.703 268.964 812.469 270.004 812.469 272.084V283.784C812.469 284.997 812.981 285.95 814.003 286.644C815.025 287.164 816.131 286.817 817.325 285.604C824.31 278.844 830.36 274.25 835.471 271.824C840.75 269.397 846.033 268.184 851.317 268.184C856.256 268.184 860.601 269.57 864.351 272.344C868.268 274.944 871.163 278.93 873.04 284.304C873.551 285.69 874.402 286.557 875.596 286.904C876.958 287.077 878.236 286.557 879.43 285.344C886.414 278.757 892.464 274.25 897.575 271.824C902.687 269.397 907.882 268.184 913.165 268.184C920.321 268.184 926.112 270.957 930.544 276.504C935.145 281.877 937.445 289.85 937.445 300.424V384.924C937.445 388.564 937.956 391.164 938.978 392.724C940.168 394.11 942.556 395.064 946.134 395.584L951.757 396.364C953.63 396.709 954.568 397.749 954.568 399.484C954.568 401.389 953.546 402.344 951.501 402.344H907.798C905.41 402.344 904.22 401.389 904.22 399.484C904.22 397.749 905.155 396.709 907.032 396.364L910.61 395.844C914.527 395.324 917.083 394.284 918.273 392.724C919.467 391.164 920.066 388.564 920.066 384.924V303.284C920.066 294.79 918.532 288.81 915.465 285.344C912.566 281.877 908.565 280.144 903.454 280.144C898.342 280.144 893.654 281.79 889.397 285.084C885.308 288.204 881.985 292.45 879.43 297.824C876.874 303.024 875.596 308.83 875.596 315.244V384.924C875.596 388.564 876.191 391.164 877.385 392.724C878.575 394.11 881.047 395.064 884.797 395.584L890.419 396.364C892.292 396.709 893.231 397.749 893.231 399.484C893.231 401.389 892.208 402.344 890.164 402.344H846.716C844.328 402.344 843.134 401.389 843.134 399.484C843.134 397.749 844.073 396.709 845.949 396.364L849.527 395.844C853.106 395.324 855.406 394.284 856.428 392.724C857.618 391.164 858.217 388.564 858.217 384.924V303.284C858.217 294.79 856.684 288.81 853.617 285.344C850.718 281.877 846.716 280.144 841.605 280.144C836.493 280.144 831.805 281.79 827.548 285.084C823.459 288.204 820.137 292.45 817.581 297.824C815.025 303.024 813.747 308.83 813.747 315.244V384.924C813.747 388.564 814.258 391.164 815.281 392.724C816.471 394.284 818.859 395.237 822.437 395.584L829.337 396.364C831.21 396.709 832.149 397.664 832.149 399.224C832.149 401.304 830.871 402.344 828.315 402.344H785.123ZM988.072 404.684C980.916 404.684 975.038 402.429 970.438 397.924C965.837 393.244 963.537 387.09 963.537 379.464C963.537 372.01 965.837 364.99 970.438 358.404C975.038 351.644 981.343 345.577 989.35 340.204C997.357 334.83 1006.47 330.497 1016.7 327.204C1018.91 326.51 1020.02 325.037 1020.02 322.784V299.124C1020.02 290.804 1018.74 284.91 1016.19 281.444C1013.63 277.804 1010.14 275.984 1005.71 275.984C1001.45 275.984 997.528 277.977 993.95 281.964C990.544 285.777 988.072 292.277 986.539 301.464C985.688 307.01 983.811 311.084 980.916 313.684C978.189 316.11 975.377 317.324 972.482 317.324C967.71 317.324 965.326 314.897 965.326 310.044C965.326 305.017 966.688 300.077 969.415 295.224C972.311 290.197 976.06 285.69 980.661 281.704C985.261 277.544 990.289 274.25 995.739 271.824C1001.19 269.397 1006.65 268.184 1012.1 268.184C1028.96 268.184 1037.4 278.15 1037.4 298.084V377.644C1037.4 384.924 1039.19 388.564 1042.76 388.564C1044.98 388.564 1047.03 387.09 1048.9 384.144C1050.77 381.024 1051.71 375.824 1051.71 368.544C1051.71 365.77 1052.82 364.384 1055.03 364.384C1057.08 364.384 1058.1 365.857 1058.1 368.804C1058.1 381.457 1055.88 390.644 1051.45 396.364C1047.19 401.909 1042.34 404.684 1036.89 404.684C1032.8 404.684 1029.56 403.038 1027.17 399.744C1024.79 396.279 1023.17 392.204 1022.32 387.524C1022.15 385.79 1021.38 384.924 1020.02 384.924C1018.82 384.75 1017.63 385.53 1016.44 387.264C1012.35 392.984 1008.18 397.318 1003.92 400.264C999.657 403.209 994.378 404.684 988.072 404.684ZM994.973 392.724C999.401 392.724 1003.49 391.164 1007.24 388.044C1010.99 384.75 1014.06 380.417 1016.44 375.044C1018.82 369.67 1020.02 363.604 1020.02 356.844V337.864C1020.02 334.57 1018.23 333.617 1014.65 335.004C1004.26 338.817 996.167 344.104 990.372 350.864C984.75 357.45 981.938 365.424 981.938 374.784C981.938 386.744 986.283 392.724 994.973 392.724Z" fill="black"/>
</g>
</svg>
