<svg width="1920" height="1080" viewBox="0 0 1920 1080" fill="none" xmlns="http://www.w3.org/2000/svg">
<rect width="1920" height="1080" fill="white"/>
<path fill-rule="evenodd" clip-rule="evenodd" d="M418.739 359.373H465.479V378.746H491.565V398.12H518.739V417.493H545.913V438.006H573.087V476.752H597V554.245H573.087V594.131H545.913V613.504H518.739V632.878H491.565V652.251H465.479V671.624H418.739V690.997H325.261L261.131 740H197V340H418.739V359.373ZM232.869 496.125L345.692 496.4V477.3H326.615V458.2H307.538V420H345.692V439.1H364.77V458.2H383.846V477.3H402.923V496.4H422V534.6H402.923V553.7H383.846V572.8H364.77V591.9H345.692V611H307.538V572.8H326.615V553.7H345.692V534.6L232.869 534.872V652.251H399.174V632.878H426.348V613.504H452.435V594.131H479.608V554.245H504.608V476.752H479.608V438.006H452.435V417.493H426.348V398.12H399.174V378.746H232.869V496.125Z" fill="#0004FF"/>
<path d="M1320.92 435.9C1337.72 435.9 1352.62 438.6 1365.62 444C1378.82 449.4 1390.32 456.8 1400.12 466.2L1368.62 498C1363.02 492 1356.22 487.3 1348.22 483.9C1340.42 480.5 1331.32 478.8 1320.92 478.8C1311.72 478.8 1303.22 480.4 1295.42 483.6C1287.82 486.6 1281.22 491 1275.62 496.8C1270.22 502.6 1265.92 509.6 1262.72 517.8C1259.72 526 1258.22 535 1258.22 544.8C1258.22 554.8 1259.72 563.9 1262.72 572.1C1265.92 580.299 1270.22 587.3 1275.62 593.1C1281.22 598.899 1287.82 603.4 1295.42 606.6C1303.22 609.8 1311.72 611.4 1320.92 611.4C1331.72 611.4 1341.12 609.7 1349.12 606.3C1357.12 602.9 1364.02 598.2 1369.82 592.2L1401.62 624C1391.42 633.4 1379.72 640.8 1366.52 646.2C1353.52 651.6 1338.42 654.3 1321.22 654.3C1305.42 654.3 1290.72 651.6 1277.12 646.2C1263.72 640.6 1251.92 632.8 1241.72 622.8C1231.72 612.8 1223.92 601.2 1218.32 588C1212.72 574.6 1209.92 560.2 1209.92 544.8C1209.92 529.4 1212.72 515.1 1218.32 501.9C1223.92 488.5 1231.72 476.9 1241.72 467.1C1251.72 457.3 1263.42 449.7 1276.82 444.3C1290.42 438.7 1305.12 435.9 1320.92 435.9Z" fill="#0004FF"/>
<path fill-rule="evenodd" clip-rule="evenodd" d="M775.9 439.2C789.3 439.2 801.4 441.9 812.2 447.3C823 452.7 831.5 460.5 837.7 470.7C844.1 480.7 847.3 492.6 847.3 506.4C847.3 520.2 844.1 532.2 837.7 542.4C831.5 552.4 823 560.2 812.2 565.8C801.4 571.2 789.3 573.9 775.9 573.9H734.5V651H687.4V439.2H775.9ZM734.5 537.3H769C774.8 537.3 780.1 536.1 784.9 533.7C789.7 531.3 793.5 527.8 796.3 523.2C799.1 518.6 800.5 513 800.5 506.4C800.5 500 799.1 494.5 796.3 489.9C793.5 485.301 789.7 481.8 784.9 479.4C780.1 477 774.8 475.8 769 475.8H734.5V537.3Z" fill="#0004FF"/>
<path fill-rule="evenodd" clip-rule="evenodd" d="M1037.88 651H988.08L974.188 612.6H891.169L877.08 651H828.18L912.18 439.2H954.779L1037.88 651ZM905.258 574.2H960.296L932.97 498.668L905.258 574.2Z" fill="#0004FF"/>
<path fill-rule="evenodd" clip-rule="evenodd" d="M1131.69 439.2C1145.69 439.2 1157.99 441.9 1168.59 447.3C1179.19 452.5 1187.49 459.8 1193.49 469.2C1199.49 478.6 1202.49 489.4 1202.49 501.6C1202.49 514 1199.49 524.9 1193.49 534.3C1187.49 543.5 1179.09 550.7 1168.29 555.9C1162.27 558.801 1155.65 560.891 1148.44 562.174L1216.29 651H1160.49L1097.31 563.7H1092.39V651H1045.29V439.2H1131.69ZM1092.39 528.9H1125.99C1135.39 528.9 1142.59 526.5 1147.59 521.7C1152.79 516.9 1155.39 510.4 1155.39 502.2C1155.39 494.6 1152.89 488.3 1147.89 483.3C1142.89 478.3 1135.69 475.8 1126.29 475.8H1092.39V528.9Z" fill="#0004FF"/>
<path d="M1563.16 479.7H1459.66V523.2H1554.16V562.5H1459.66V610.2H1564.66V651H1412.56V439.2H1563.16V479.7Z" fill="#0004FF"/>
<path d="M1629.23 609.6H1723.13V651H1582.13V439.2H1629.23V609.6Z" fill="#0004FF"/>
</svg>
